<?xml version="1.0" encoding="utf-8"?>
<!-- Generator: Adobe Illustrator 19.0.0, SVG Export Plug-In . SVG Version: 6.00 Build 0)  -->
<svg version="1.1" id="Layer_1" xmlns="http://www.w3.org/2000/svg" xmlns:xlink="http://www.w3.org/1999/xlink" x="0px" y="0px"
	 viewBox="-285 412.9 24 16" style="enable-background:new -285 412.9 24 16;" xml:space="preserve">
<g>
	<g>
		<path d="M-273,412.9c-7.9,0-12,8-12,8s3.1,8,12,8c8.1,0,12-8,12-8S-264.9,412.9-273,412.9z M-273,425.9c-2.9,0-5-2.2-5-5
			c0-2.8,2.1-5,5-5s5,2.2,5,5C-268,423.7-270.1,425.9-273,425.9z M-273,417.9c-1.7,0-3,1.4-3,3c0,1.6,1.3,3,3,3c1.7,0,3-1.4,3-3
			C-270,419.3-271.3,417.9-273,417.9z"/>
	</g>
</g>
</svg>
