<?xml version="1.0" encoding="utf-8"?>
<!-- Generator: Adobe Illustrator 19.0.0, SVG Export Plug-In . SVG Version: 6.00 Build 0)  -->
<svg version="1.1" id="Layer_1" xmlns="http://www.w3.org/2000/svg" xmlns:xlink="http://www.w3.org/1999/xlink" x="0px" y="0px"
	 viewBox="-266.2 396.5 51 51" style="enable-background:new -266.2 396.5 51 51;" xml:space="preserve">
<path d="M-240.7,397.4c-13.6,0-24.6,11-24.6,24.6c0,13.6,11,24.6,24.6,24.6s24.6-11,24.6-24.6C-216,408.4-227.1,397.4-240.7,397.4z
	 M-234.1,421.9h-4.3c0,6.8,0,15.2,0,15.2h-6.3c0,0,0-8.3,0-15.2h-3v-5.4h3V413c0-2.5,1.2-6.4,6.4-6.4l4.7,0v5.2c0,0-2.8,0-3.4,0
	c-0.6,0-1.3,0.3-1.3,1.5v3.2h4.8L-234.1,421.9z"/>
</svg>
